{
  "asset": {
    "version": "2.0",
    "generator": "ARKRenderer Phase 0.47 material ball validation fixture"
  },
  "scene": 0,
  "scenes": [
    { "nodes": [0, 1, 2, 3, 4, 5, 6, 7, 8, 9, 10, 11, 12, 13, 14, 15] }
  ],
  "nodes": [
    { "name": "Node_MB_M00_R005", "mesh": 0, "translation": [-2.4, 1.1, 0.0], "scale": [0.45, 0.45, 0.45] },
    { "name": "Node_MB_M00_R025", "mesh": 1, "translation": [-1.2, 1.1, 0.0], "scale": [0.45, 0.45, 0.45] },
    { "name": "Node_MB_M00_R050", "mesh": 2, "translation": [0.0, 1.1, 0.0], "scale": [0.45, 0.45, 0.45] },
    { "name": "Node_MB_M00_R075", "mesh": 3, "translation": [1.2, 1.1, 0.0], "scale": [0.45, 0.45, 0.45] },
    { "name": "Node_MB_M00_R100", "mesh": 4, "translation": [2.4, 1.1, 0.0], "scale": [0.45, 0.45, 0.45] },
    { "name": "Node_MB_M50_R005", "mesh": 5, "translation": [-2.4, 0.0, 0.0], "scale": [0.45, 0.45, 0.45] },
    { "name": "Node_MB_M50_R025", "mesh": 6, "translation": [-1.2, 0.0, 0.0], "scale": [0.45, 0.45, 0.45] },
    { "name": "Node_MB_M50_R050", "mesh": 7, "translation": [0.0, 0.0, 0.0], "scale": [0.45, 0.45, 0.45] },
    { "name": "Node_MB_M50_R075", "mesh": 8, "translation": [1.2, 0.0, 0.0], "scale": [0.45, 0.45, 0.45] },
    { "name": "Node_MB_M50_R100", "mesh": 9, "translation": [2.4, 0.0, 0.0], "scale": [0.45, 0.45, 0.45] },
    { "name": "Node_MB_M100_R005", "mesh": 10, "translation": [-2.4, -1.1, 0.0], "scale": [0.45, 0.45, 0.45] },
    { "name": "Node_MB_M100_R025", "mesh": 11, "translation": [-1.2, -1.1, 0.0], "scale": [0.45, 0.45, 0.45] },
    { "name": "Node_MB_M100_R050", "mesh": 12, "translation": [0.0, -1.1, 0.0], "scale": [0.45, 0.45, 0.45] },
    { "name": "Node_MB_M100_R075", "mesh": 13, "translation": [1.2, -1.1, 0.0], "scale": [0.45, 0.45, 0.45] },
    { "name": "Node_MB_M100_R100", "mesh": 14, "translation": [2.4, -1.1, 0.0], "scale": [0.45, 0.45, 0.45] },
    { "name": "MaterialBallCameraNode", "camera": 0, "translation": [0.0, 0.0, 6.0] }
  ],
  "cameras": [
    {
      "name": "MaterialBallCamera",
      "type": "perspective",
      "perspective": {
        "yfov": 0.7853981633974483,
        "aspectRatio": 1.7777777777777777,
        "znear": 0.1,
        "zfar": 100.0
      }
    }
  ],
  "meshes": [
    { "name": "Mesh_MB_M00_R005", "primitives": [{ "attributes": { "POSITION": 0, "NORMAL": 1, "TEXCOORD_0": 2 }, "indices": 3, "material": 0, "mode": 4 }] },
    { "name": "Mesh_MB_M00_R025", "primitives": [{ "attributes": { "POSITION": 0, "NORMAL": 1, "TEXCOORD_0": 2 }, "indices": 3, "material": 1, "mode": 4 }] },
    { "name": "Mesh_MB_M00_R050", "primitives": [{ "attributes": { "POSITION": 0, "NORMAL": 1, "TEXCOORD_0": 2 }, "indices": 3, "material": 2, "mode": 4 }] },
    { "name": "Mesh_MB_M00_R075", "primitives": [{ "attributes": { "POSITION": 0, "NORMAL": 1, "TEXCOORD_0": 2 }, "indices": 3, "material": 3, "mode": 4 }] },
    { "name": "Mesh_MB_M00_R100", "primitives": [{ "attributes": { "POSITION": 0, "NORMAL": 1, "TEXCOORD_0": 2 }, "indices": 3, "material": 4, "mode": 4 }] },
    { "name": "Mesh_MB_M50_R005", "primitives": [{ "attributes": { "POSITION": 0, "NORMAL": 1, "TEXCOORD_0": 2 }, "indices": 3, "material": 5, "mode": 4 }] },
    { "name": "Mesh_MB_M50_R025", "primitives": [{ "attributes": { "POSITION": 0, "NORMAL": 1, "TEXCOORD_0": 2 }, "indices": 3, "material": 6, "mode": 4 }] },
    { "name": "Mesh_MB_M50_R050", "primitives": [{ "attributes": { "POSITION": 0, "NORMAL": 1, "TEXCOORD_0": 2 }, "indices": 3, "material": 7, "mode": 4 }] },
    { "name": "Mesh_MB_M50_R075", "primitives": [{ "attributes": { "POSITION": 0, "NORMAL": 1, "TEXCOORD_0": 2 }, "indices": 3, "material": 8, "mode": 4 }] },
    { "name": "Mesh_MB_M50_R100", "primitives": [{ "attributes": { "POSITION": 0, "NORMAL": 1, "TEXCOORD_0": 2 }, "indices": 3, "material": 9, "mode": 4 }] },
    { "name": "Mesh_MB_M100_R005", "primitives": [{ "attributes": { "POSITION": 0, "NORMAL": 1, "TEXCOORD_0": 2 }, "indices": 3, "material": 10, "mode": 4 }] },
    { "name": "Mesh_MB_M100_R025", "primitives": [{ "attributes": { "POSITION": 0, "NORMAL": 1, "TEXCOORD_0": 2 }, "indices": 3, "material": 11, "mode": 4 }] },
    { "name": "Mesh_MB_M100_R050", "primitives": [{ "attributes": { "POSITION": 0, "NORMAL": 1, "TEXCOORD_0": 2 }, "indices": 3, "material": 12, "mode": 4 }] },
    { "name": "Mesh_MB_M100_R075", "primitives": [{ "attributes": { "POSITION": 0, "NORMAL": 1, "TEXCOORD_0": 2 }, "indices": 3, "material": 13, "mode": 4 }] },
    { "name": "Mesh_MB_M100_R100", "primitives": [{ "attributes": { "POSITION": 0, "NORMAL": 1, "TEXCOORD_0": 2 }, "indices": 3, "material": 14, "mode": 4 }] }
  ],
  "materials": [
    { "name": "MB_M00_R005", "pbrMetallicRoughness": { "baseColorFactor": [0.8, 0.76, 0.68, 1.0], "baseColorTexture": { "index": 0 }, "metallicFactor": 0.0, "roughnessFactor": 0.05 }, "alphaMode": "OPAQUE", "doubleSided": false },
    { "name": "MB_M00_R025", "pbrMetallicRoughness": { "baseColorFactor": [0.8, 0.76, 0.68, 1.0], "baseColorTexture": { "index": 0 }, "metallicFactor": 0.0, "roughnessFactor": 0.25 }, "alphaMode": "OPAQUE", "doubleSided": false },
    { "name": "MB_M00_R050", "pbrMetallicRoughness": { "baseColorFactor": [0.8, 0.76, 0.68, 1.0], "baseColorTexture": { "index": 0 }, "metallicFactor": 0.0, "roughnessFactor": 0.5 }, "alphaMode": "OPAQUE", "doubleSided": false },
    { "name": "MB_M00_R075", "pbrMetallicRoughness": { "baseColorFactor": [0.8, 0.76, 0.68, 1.0], "baseColorTexture": { "index": 0 }, "metallicFactor": 0.0, "roughnessFactor": 0.75 }, "alphaMode": "OPAQUE", "doubleSided": false },
    { "name": "MB_M00_R100", "pbrMetallicRoughness": { "baseColorFactor": [0.8, 0.76, 0.68, 1.0], "baseColorTexture": { "index": 0 }, "metallicFactor": 0.0, "roughnessFactor": 1.0 }, "alphaMode": "OPAQUE", "doubleSided": false },
    { "name": "MB_M50_R005", "pbrMetallicRoughness": { "baseColorFactor": [0.82, 0.82, 0.82, 1.0], "baseColorTexture": { "index": 0 }, "metallicFactor": 0.5, "roughnessFactor": 0.05 }, "alphaMode": "OPAQUE", "doubleSided": false },
    { "name": "MB_M50_R025", "pbrMetallicRoughness": { "baseColorFactor": [0.82, 0.82, 0.82, 1.0], "baseColorTexture": { "index": 0 }, "metallicFactor": 0.5, "roughnessFactor": 0.25 }, "alphaMode": "OPAQUE", "doubleSided": false },
    { "name": "MB_M50_R050", "pbrMetallicRoughness": { "baseColorFactor": [0.82, 0.82, 0.82, 1.0], "baseColorTexture": { "index": 0 }, "metallicFactor": 0.5, "roughnessFactor": 0.5 }, "alphaMode": "OPAQUE", "doubleSided": false },
    { "name": "MB_M50_R075", "pbrMetallicRoughness": { "baseColorFactor": [0.82, 0.82, 0.82, 1.0], "baseColorTexture": { "index": 0 }, "metallicFactor": 0.5, "roughnessFactor": 0.75 }, "alphaMode": "OPAQUE", "doubleSided": false },
    { "name": "MB_M50_R100", "pbrMetallicRoughness": { "baseColorFactor": [0.82, 0.82, 0.82, 1.0], "baseColorTexture": { "index": 0 }, "metallicFactor": 0.5, "roughnessFactor": 1.0 }, "alphaMode": "OPAQUE", "doubleSided": false },
    { "name": "MB_M100_R005", "pbrMetallicRoughness": { "baseColorFactor": [0.95, 0.93, 0.86, 1.0], "baseColorTexture": { "index": 0 }, "metallicFactor": 1.0, "roughnessFactor": 0.05 }, "alphaMode": "OPAQUE", "doubleSided": false },
    { "name": "MB_M100_R025", "pbrMetallicRoughness": { "baseColorFactor": [0.95, 0.93, 0.86, 1.0], "baseColorTexture": { "index": 0 }, "metallicFactor": 1.0, "roughnessFactor": 0.25 }, "alphaMode": "OPAQUE", "doubleSided": false },
    { "name": "MB_M100_R050", "pbrMetallicRoughness": { "baseColorFactor": [0.95, 0.93, 0.86, 1.0], "baseColorTexture": { "index": 0 }, "metallicFactor": 1.0, "roughnessFactor": 0.5 }, "alphaMode": "OPAQUE", "doubleSided": false },
    { "name": "MB_M100_R075", "pbrMetallicRoughness": { "baseColorFactor": [0.95, 0.93, 0.86, 1.0], "baseColorTexture": { "index": 0 }, "metallicFactor": 1.0, "roughnessFactor": 0.75 }, "alphaMode": "OPAQUE", "doubleSided": false },
    { "name": "MB_M100_R100", "pbrMetallicRoughness": { "baseColorFactor": [0.95, 0.93, 0.86, 1.0], "baseColorTexture": { "index": 0 }, "metallicFactor": 1.0, "roughnessFactor": 1.0 }, "alphaMode": "OPAQUE", "doubleSided": false }
  ],
  "textures": [
    { "source": 0 }
  ],
  "images": [
    { "uri": "../textures/xiaowei.png" }
  ],
  "buffers": [
    {
      "uri": "data:application/octet-stream;base64,",
      "byteLength": 3776
    }
  ],
  "bufferViews": [
    { "buffer": 0, "byteOffset": 0, "byteLength": 1092, "target": 34962 },
    { "buffer": 0, "byteOffset": 1092, "byteLength": 1092, "target": 34962 },
    { "buffer": 0, "byteOffset": 2184, "byteLength": 728, "target": 34962 },
    { "buffer": 0, "byteOffset": 2912, "byteLength": 864, "target": 34963 }
  ],
  "accessors": [
    { "bufferView": 0, "byteOffset": 0, "componentType": 5126, "count": 91, "type": "VEC3", "min": [-1.0, -1.0, -1.0], "max": [1.0, 1.0, 1.0] },
    { "bufferView": 1, "byteOffset": 0, "componentType": 5126, "count": 91, "type": "VEC3" },
    { "bufferView": 2, "byteOffset": 0, "componentType": 5126, "count": 91, "type": "VEC2" },
    { "bufferView": 3, "byteOffset": 0, "componentType": 5123, "count": 432, "type": "SCALAR" }
  ]
}
