{
  "asset": {
    "version": "2.0",
    "generator": "ARKRenderer Phase 0.67 shadow probe high resolution spheres"
  },
  "scene": 0,
  "scenes": [
    {
      "nodes": [
        0,
        1,
        2,
        3,
        4
      ]
    }
  ],
  "nodes": [
    {
      "name": "ShadowProbe_Matte",
      "mesh": 0,
      "translation": [
        -4.8,
        0.0,
        -2.0
      ],
      "scale": [
        0.72,
        0.72,
        0.72
      ]
    },
    {
      "name": "ShadowProbe_RoughMetal",
      "mesh": 1,
      "translation": [
        -2.4,
        0.0,
        -1.0
      ],
      "scale": [
        0.72,
        0.72,
        0.72
      ]
    },
    {
      "name": "ShadowProbe_Smooth",
      "mesh": 2,
      "translation": [
        0.0,
        0.0,
        0.0
      ],
      "scale": [
        0.72,
        0.72,
        0.72
      ]
    },
    {
      "name": "ShadowProbe_Bright",
      "mesh": 3,
      "translation": [
        2.4,
        0.0,
        1.0
      ],
      "scale": [
        0.72,
        0.72,
        0.72
      ]
    },
    {
      "name": "ShadowProbe_Dark",
      "mesh": 4,
      "translation": [
        4.8,
        0.0,
        2.0
      ],
      "scale": [
        0.72,
        0.72,
        0.72
      ]
    }
  ],
  "meshes": [
    {
      "name": "ShadowProbe_MatteMesh",
      "primitives": [
        {
          "attributes": {
            "POSITION": 0,
            "NORMAL": 1,
            "TEXCOORD_0": 2
          },
          "indices": 3,
          "material": 0,
          "mode": 4
        }
      ]
    },
    {
      "name": "ShadowProbe_RoughMetalMesh",
      "primitives": [
        {
          "attributes": {
            "POSITION": 0,
            "NORMAL": 1,
            "TEXCOORD_0": 2
          },
          "indices": 3,
          "material": 1,
          "mode": 4
        }
      ]
    },
    {
      "name": "ShadowProbe_SmoothMesh",
      "primitives": [
        {
          "attributes": {
            "POSITION": 0,
            "NORMAL": 1,
            "TEXCOORD_0": 2
          },
          "indices": 3,
          "material": 2,
          "mode": 4
        }
      ]
    },
    {
      "name": "ShadowProbe_BrightMesh",
      "primitives": [
        {
          "attributes": {
            "POSITION": 0,
            "NORMAL": 1,
            "TEXCOORD_0": 2
          },
          "indices": 3,
          "material": 3,
          "mode": 4
        }
      ]
    },
    {
      "name": "ShadowProbe_DarkMesh",
      "primitives": [
        {
          "attributes": {
            "POSITION": 0,
            "NORMAL": 1,
            "TEXCOORD_0": 2
          },
          "indices": 3,
          "material": 4,
          "mode": 4
        }
      ]
    }
  ],
  "materials": [
    {
      "name": "SP_MatteGray",
      "pbrMetallicRoughness": {
        "baseColorFactor": [
          0.72,
          0.72,
          0.7,
          1.0
        ],
        "baseColorTexture": {
          "index": 0
        },
        "metallicFactor": 0.0,
        "roughnessFactor": 0.82
      },
      "alphaMode": "OPAQUE",
      "doubleSided": false
    },
    {
      "name": "SP_RoughMetal",
      "pbrMetallicRoughness": {
        "baseColorFactor": [
          0.82,
          0.8,
          0.74,
          1.0
        ],
        "baseColorTexture": {
          "index": 0
        },
        "metallicFactor": 1.0,
        "roughnessFactor": 0.58
      },
      "alphaMode": "OPAQUE",
      "doubleSided": false
    },
    {
      "name": "SP_SmoothDielectric",
      "pbrMetallicRoughness": {
        "baseColorFactor": [
          0.58,
          0.68,
          0.86,
          1.0
        ],
        "baseColorTexture": {
          "index": 0
        },
        "metallicFactor": 0.0,
        "roughnessFactor": 0.18
      },
      "alphaMode": "OPAQUE",
      "doubleSided": false
    },
    {
      "name": "SP_BrightWarm",
      "pbrMetallicRoughness": {
        "baseColorFactor": [
          1.0,
          0.88,
          0.58,
          1.0
        ],
        "baseColorTexture": {
          "index": 0
        },
        "metallicFactor": 0.0,
        "roughnessFactor": 0.32
      },
      "alphaMode": "OPAQUE",
      "doubleSided": false
    },
    {
      "name": "SP_DarkGloss",
      "pbrMetallicRoughness": {
        "baseColorFactor": [
          0.12,
          0.14,
          0.16,
          1.0
        ],
        "baseColorTexture": {
          "index": 0
        },
        "metallicFactor": 0.0,
        "roughnessFactor": 0.24
      },
      "alphaMode": "OPAQUE",
      "doubleSided": false
    }
  ],
  "textures": [
    {
      "source": 0
    }
  ],
  "images": [
    {
      "uri": "../textures/xiaowei.png"
    }
  ],
  "buffers": [
    {
      "uri": "data:application/octet-stream;base64,",
      "byteLength": 66848
    }
  ],
  "bufferViews": [
    {
      "buffer": 0,
      "byteOffset": 0,
      "byteLength": 14700,
      "target": 34962
    },
    {
      "buffer": 0,
      "byteOffset": 14700,
      "byteLength": 14700,
      "target": 34962
    },
    {
      "buffer": 0,
      "byteOffset": 29400,
      "byteLength": 9800,
      "target": 34962
    },
    {
      "buffer": 0,
      "byteOffset": 39200,
      "byteLength": 27648,
      "target": 34963
    }
  ],
  "accessors": [
    {
      "bufferView": 0,
      "componentType": 5126,
      "count": 1225,
      "type": "VEC3",
      "min": [
        -1.0,
        -1.0,
        -1.0
      ],
      "max": [
        1.0,
        1.0,
        1.0
      ]
    },
    {
      "bufferView": 1,
      "componentType": 5126,
      "count": 1225,
      "type": "VEC3"
    },
    {
      "bufferView": 2,
      "componentType": 5126,
      "count": 1225,
      "type": "VEC2",
      "min": [
        0.0,
        0.0
      ],
      "max": [
        1.0,
        1.0
      ]
    },
    {
      "bufferView": 3,
      "componentType": 5125,
      "count": 6912,
      "type": "SCALAR"
    }
  ]
}