{
  "asset": {
    "version": "2.0",
    "generator": "ARKRenderer Phase 0.22 texture transform fixture"
  },
  "extensionsUsed": [
    "KHR_texture_transform"
  ],
  "scene": 0,
  "scenes": [
    {
      "nodes": [0]
    }
  ],
  "nodes": [
    {
      "name": "TextureTransformQuad",
      "mesh": 0
    }
  ],
  "meshes": [
    {
      "name": "TextureTransformQuad",
      "primitives": [
        {
          "attributes": {
            "POSITION": 0,
            "NORMAL": 1,
            "TEXCOORD_0": 2,
            "TEXCOORD_1": 3
          },
          "indices": 4,
          "material": 0,
          "mode": 4
        }
      ]
    }
  ],
  "materials": [
    {
      "name": "TextureTransformMaterial",
      "pbrMetallicRoughness": {
        "baseColorTexture": {
          "index": 0,
          "texCoord": 0,
          "extensions": {
            "KHR_texture_transform": {
              "offset": [0.125, 0.25],
              "rotation": 0.5,
              "scale": [2.0, 0.5],
              "texCoord": 1
            }
          }
        },
        "metallicRoughnessTexture": {
          "index": 0,
          "texCoord": 1,
          "extensions": {
            "KHR_texture_transform": {
              "offset": [0.0, 0.4],
              "rotation": 0.0,
              "scale": [1.5, 1.0]
            }
          }
        }
      },
      "normalTexture": {
        "index": 0,
        "texCoord": 0,
        "extensions": {
          "KHR_texture_transform": {
            "offset": [-0.25, 0.0],
            "rotation": 1.0,
            "scale": [0.75, 0.5]
          }
        }
      },
      "occlusionTexture": {
        "index": 0,
        "texCoord": 0,
        "extensions": {
          "KHR_texture_transform": {
            "offset": [0.2, -0.1],
            "rotation": -0.25,
            "scale": [1.0, 2.0]
          }
        }
      },
      "emissiveTexture": {
        "index": 0,
        "texCoord": 1,
        "extensions": {
          "KHR_texture_transform": {
            "offset": [0.0, 0.0],
            "rotation": 0.25,
            "scale": [1.0, 1.0]
          }
        }
      }
    }
  ],
  "textures": [
    {
      "source": 0
    }
  ],
  "images": [
    {
      "uri": "../textures/xiaowei.png"
    }
  ],
  "buffers": [
    {
      "uri": "data:application/octet-stream;base64,",
      "byteLength": 184
    }
  ],
  "bufferViews": [
    {
      "buffer": 0,
      "byteOffset": 0,
      "byteLength": 48
    },
    {
      "buffer": 0,
      "byteOffset": 48,
      "byteLength": 48
    },
    {
      "buffer": 0,
      "byteOffset": 96,
      "byteLength": 32
    },
    {
      "buffer": 0,
      "byteOffset": 128,
      "byteLength": 32
    },
    {
      "buffer": 0,
      "byteOffset": 160,
      "byteLength": 24
    }
  ],
  "accessors": [
    {
      "bufferView": 0,
      "componentType": 5126,
      "count": 4,
      "type": "VEC3",
      "min": [-1.0, -1.0, 0.0],
      "max": [1.0, 1.0, 0.0]
    },
    {
      "bufferView": 1,
      "componentType": 5126,
      "count": 4,
      "type": "VEC3"
    },
    {
      "bufferView": 2,
      "componentType": 5126,
      "count": 4,
      "type": "VEC2"
    },
    {
      "bufferView": 3,
      "componentType": 5126,
      "count": 4,
      "type": "VEC2"
    },
    {
      "bufferView": 4,
      "componentType": 5125,
      "count": 6,
      "type": "SCALAR"
    }
  ]
}
